<svg width="25" height="20" viewBox="0 0 25 20" fill="none" xmlns="http://www.w3.org/2000/svg">
<path d="M24 11C24.5523 11 25 10.5523 25 10C25 9.44771 24.5523 9 24 9V11ZM1 10L0.292892 9.29289C-0.0976315 9.68342 -0.0976315 10.3166 0.292892 10.7071L1 10ZM9.29289 19.7071C9.68342 20.0976 10.3166 20.0976 10.7071 19.7071C11.0976 19.3166 11.0976 18.6834 10.7071 18.2929L9.29289 19.7071ZM10.7071 1.70711C11.0976 1.31658 11.0976 0.683418 10.7071 0.292892C10.3166 -0.0976315 9.68342 -0.0976315 9.29289 0.292892L10.7071 1.70711ZM24 9L1 9V11L24 11V9ZM0.292892 10.7071L9.29289 19.7071L10.7071 18.2929L1.70711 9.29289L0.292892 10.7071ZM1.70711 10.7071L10.7071 1.70711L9.29289 0.292892L0.292892 9.29289L1.70711 10.7071Z" fill="#010101"/>
</svg>
