<svg width="16" height="16" viewBox="0 0 16 16" fill="none" xmlns="http://www.w3.org/2000/svg">
<g clip-path="url(#clip0)">
<path d="M8.57373 10.8688L6.27866 13.164C6.27866 13.164 6.27866 13.164 6.2786 13.164C6.2786 13.164 6.2786 13.1641 6.27855 13.1641C5.32947 14.1132 3.7851 14.1133 2.83591 13.1641C2.37609 12.7043 2.12291 12.0929 2.12291 11.4427C2.12291 10.7926 2.37609 10.1813 2.83575 9.7215C2.83581 9.72145 2.83586 9.72139 2.83591 9.72134L5.13099 7.42621C5.44783 7.10931 5.44783 6.5955 5.13093 6.27865C4.81408 5.9618 4.30027 5.9618 3.98337 6.27865L1.6883 8.57378C1.68814 8.57394 1.68797 8.57415 1.68781 8.57432C0.921849 9.34055 0.5 10.3593 0.5 11.4427C0.5 12.5264 0.922012 13.5453 1.68835 14.3116C2.47936 15.1026 3.5183 15.4981 4.55729 15.4981C5.59627 15.4981 6.63526 15.1026 7.42616 14.3116V14.3116C7.42622 14.3116 7.42622 14.3115 7.42622 14.3115L9.72129 12.0164C10.0381 11.6996 10.0381 11.1857 9.72124 10.8688C9.40444 10.552 8.89068 10.552 8.57373 10.8688Z" fill="white"/>
<path d="M15.5001 4.5573C15.5001 3.47357 15.0781 2.4547 14.3117 1.68836C12.7298 0.106456 10.1558 0.10651 8.57393 1.68836C8.57387 1.68847 8.57376 1.68853 8.57371 1.68863L6.27869 3.9836C5.96179 4.30044 5.96179 4.81431 6.27869 5.13116C6.4372 5.28966 6.64482 5.36886 6.8525 5.36886C7.06012 5.36886 7.26786 5.28961 7.42625 5.13116L9.72127 2.8362C9.72133 2.83609 9.72143 2.83604 9.72154 2.83593C10.6706 1.88685 12.215 1.88679 13.1642 2.83593C13.6239 3.29575 13.8772 3.9071 13.8772 4.5573C13.8772 5.20744 13.6241 5.81868 13.1643 6.27851C13.1643 6.27856 13.1642 6.27861 13.1642 6.27867L10.8691 8.57379C10.5523 8.89064 10.5523 9.40446 10.8692 9.72136C11.0276 9.87981 11.2353 9.95906 11.4429 9.95906C11.6506 9.95906 11.8583 9.87981 12.0167 9.72136L14.3118 7.42623C14.312 7.42607 14.3121 7.42585 14.3123 7.42569C15.0782 6.65946 15.5001 5.64076 15.5001 4.5573Z" fill="white"/>
<path d="M5.13123 10.8688C5.28968 11.0272 5.49736 11.1065 5.70498 11.1065C5.91266 11.1065 6.12034 11.0272 6.27879 10.8688L10.869 6.27851C11.1859 5.96166 11.1859 5.44785 10.869 5.13095C10.5522 4.8141 10.0384 4.8141 9.72148 5.13095L5.13123 9.72114C4.81433 10.0381 4.81433 10.5519 5.13123 10.8688Z" fill="white"/>
</g>
<defs>
<clipPath id="clip0">
<rect width="15" height="15" fill="white" transform="translate(0.5 0.5)"/>
</clipPath>
</defs>
</svg>
