<svg width="16" height="16" viewBox="0 0 16 16" fill="none" xmlns="http://www.w3.org/2000/svg">
<path d="M1 6.75C0.447715 6.75 0 7.19772 0 7.75C0 8.30228 0.447715 8.75 1 8.75V6.75ZM14.5 7.75L15.2071 8.45711C15.5976 8.06658 15.5976 7.43342 15.2071 7.04289L14.5 7.75ZM8.45711 0.292893C8.06658 -0.0976311 7.43342 -0.0976311 7.04289 0.292893C6.65237 0.683417 6.65237 1.31658 7.04289 1.70711L8.45711 0.292893ZM7.04289 13.7929C6.65237 14.1834 6.65237 14.8166 7.04289 15.2071C7.43342 15.5976 8.06658 15.5976 8.45711 15.2071L7.04289 13.7929ZM1 8.75H14.5V6.75H1V8.75ZM15.2071 7.04289L8.45711 0.292893L7.04289 1.70711L13.7929 8.45711L15.2071 7.04289ZM13.7929 7.04289L7.04289 13.7929L8.45711 15.2071L15.2071 8.45711L13.7929 7.04289Z" fill="#808080"/>
</svg>
