<svg width="16" height="16" viewBox="0 0 16 16" fill="none" xmlns="http://www.w3.org/2000/svg">
<path d="M14.5 6.75C15.0523 6.75 15.5 7.19772 15.5 7.75C15.5 8.30228 15.0523 8.75 14.5 8.75V6.75ZM1 7.75L0.292893 8.45711C-0.0976311 8.06658 -0.0976311 7.43342 0.292893 7.04289L1 7.75ZM7.04289 0.292893C7.43342 -0.0976311 8.06658 -0.0976311 8.45711 0.292893C8.84763 0.683418 8.84763 1.31658 8.45711 1.70711L7.04289 0.292893ZM8.45711 13.7929C8.84763 14.1834 8.84763 14.8166 8.45711 15.2071C8.06658 15.5976 7.43342 15.5976 7.04289 15.2071L8.45711 13.7929ZM14.5 8.75H1V6.75H14.5V8.75ZM0.292893 7.04289L7.04289 0.292893L8.45711 1.70711L1.70711 8.45711L0.292893 7.04289ZM1.70711 7.04289L8.45711 13.7929L7.04289 15.2071L0.292893 8.45711L1.70711 7.04289Z" fill="#808080"/>
</svg>
